umbra-7.ufo
<glyph name="exclam" format="1">
  <advance width="291"/>
  <unicode hex="0021"/>
  <outline>
    <contour>
      <point x="58" y="332" type="line"/>
      <point x="28" y="612" type="line"/>
      <point x="188" y="612" type="line"/>
      <point x="158" y="332" type="line"/>
    </contour>
    <contour>
      <point x="108" y="84" type="line"/>
      <point x="3" y="189" type="line"/>
      <point x="108" y="295" type="line"/>
      <point x="214" y="189" type="line"/>
    </contour>
  </outline>
</glyph>
<glyph name="quotedbl" format="1">
  <advance width="390"/>
  <unicode hex="0022"/>
  <outline>
    <contour>
      <point x="38" y="402" type="line"/>
      <point x="8" y="612" type="line"/>
      <point x="138" y="612" type="line"/>
      <point x="108" y="402" type="line"/>
    </contour>
    <contour>
      <point x="208" y="402" type="line"/>
      <point x="178" y="612" type="line"/>
      <point x="308" y="612" type="line"/>
      <point x="278" y="402" type="line"/>
    </contour>
  </outline>
</glyph>
<glyph name="dollar" format="1">
  <advance width="449"/>
  <unicode hex="0024"/>
  <outline>
    <contour>
      <point x="242" y="262" type="curve" smooth="yes"/>
      <point x="242" y="322"/>
      <point x="9" y="325"/>
      <point x="9" y="475" type="curve" smooth="yes"/>
      <point x="9" y="554"/>
      <point x="65" y="605"/>
      <point x="143" y="621" type="curve"/>
      <point x="128" y="682" type="line"/>
      <point x="268" y="682" type="line"/>
      <point x="253" y="621" type="line"/>
      <point x="299" y="609"/>
      <point x="341" y="582"/>
      <point x="378" y="540" type="curve"/>
      <point x="338" y="430" type="line"/>
      <point x="298" y="468"/>
      <point x="250" y="507"/>
      <point x="202" y="507" type="curve" smooth="yes"/>
      <point x="174" y="507"/>
      <point x="164" y="493"/>
      <point x="164" y="475" type="curve" smooth="yes"/>
      <point x="164" y="415"/>
      <point x="387" y="408"/>
      <point x="387" y="264" type="curve" smooth="yes"/>
      <point x="387" y="159"/>
      <point x="322" y="114"/>
      <point x="239" y="101" type="curve"/>
      <point x="255" y="37" type="line"/>
      <point x="115" y="37" type="line"/>
      <point x="131" y="101" type="line"/>
      <point x="62" y="111"/>
      <point x="10" y="141"/>
      <point x="-22" y="179" type="curve"/>
      <point x="18" y="294" type="line"/>
      <point x="58" y="256"/>
      <point x="127" y="222"/>
      <point x="175" y="222" type="curve" smooth="yes"/>
      <point x="213" y="222"/>
      <point x="242" y="231"/>
    </contour>
  </outline>
</glyph>
<glyph name="ampersand" format="1">
  <advance width="487"/>
  <unicode hex="0026"/>
  <outline>
    <contour>
      <point x="253" y="321" type="line"/>
      <point x="220" y="321" type="line" smooth="yes"/>
      <point x="172" y="321"/>
      <point x="138" y="310"/>
      <point x="138" y="272" type="curve" smooth="yes"/>
      <point x="138" y="241"/>
      <point x="165" y="222"/>
      <point x="198" y="222" type="curve" smooth="yes"/>
      <point x="221" y="222"/>
      <point x="253" y="235"/>
      <point x="253" y="266" type="curve" smooth="yes"/>
    </contour>
    <contour>
      <point x="163" y="469" type="curve" smooth="yes"/>
      <point x="163" y="441"/>
      <point x="172" y="416"/>
      <point x="220" y="416" type="curve" smooth="yes"/>
      <point x="420" y="416" type="line"/>
      <point x="420" y="321" type="line"/>
      <point x="368" y="321" type="line"/>
      <point x="372" y="305"/>
      <point x="373" y="283"/>
      <point x="373" y="239" type="curve" smooth="yes"/>
      <point x="373" y="144"/>
      <point x="279" y="97"/>
      <point x="190" y="97" type="curve" smooth="yes"/>
      <point x="103" y="97"/>
      <point x="-2" y="147"/>
      <point x="-2" y="264" type="curve" smooth="yes"/>
      <point x="-2" y="320"/>
      <point x="29" y="359"/>
      <point x="83" y="379" type="curve"/>
      <point x="38" y="397"/>
      <point x="12" y="430"/>
      <point x="12" y="485" type="curve" smooth="yes"/>
      <point x="12" y="582"/>
      <point x="97" y="627"/>
      <point x="184" y="627" type="curve" smooth="yes"/>
      <point x="271" y="627"/>
      <point x="331" y="577"/>
      <point x="351" y="550" type="curve"/>
      <point x="311" y="460" type="line"/>
      <point x="271" y="498"/>
      <point x="233" y="507"/>
      <point x="205" y="507" type="curve" smooth="yes"/>
      <point x="177" y="507"/>
      <point x="163" y="492"/>
    </contour>
  </outline>
</glyph>
<glyph name="comma" format="1">
  <advance width="220"/>
  <unicode hex="002C"/>
  <outline>
    <contour>
      <point x="8" y="-8" type="line"/>
      <point x="8" y="252" type="line"/>
      <point x="138" y="252" type="line"/>
      <point x="138" y="112" type="line"/>
    </contour>
  </outline>
</glyph>
<glyph name="three" format="1">
  <advance width="464"/>
  <unicode hex="0033"/>
  <outline>
    <contour>
      <point x="120" y="321" type="line"/>
      <point x="120" y="416" type="line"/>
      <point x="170" y="416" type="line" smooth="yes"/>
      <point x="218" y="416"/>
      <point x="227" y="441"/>
      <point x="227" y="469" type="curve" smooth="yes"/>
      <point x="227" y="492"/>
      <point x="213" y="507"/>
      <point x="185" y="507" type="curve" smooth="yes"/>
      <point x="137" y="507"/>
      <point x="89" y="468"/>
      <point x="49" y="430" type="curve"/>
      <point x="9" y="540" type="line"/>
      <point x="59" y="597"/>
      <point x="119" y="627"/>
      <point x="186" y="627" type="curve" smooth="yes"/>
      <point x="293" y="627"/>
      <point x="378" y="582"/>
      <point x="378" y="485" type="curve" smooth="yes"/>
      <point x="378" y="430"/>
      <point x="352" y="397"/>
      <point x="307" y="379" type="curve"/>
      <point x="361" y="359"/>
      <point x="392" y="320"/>
      <point x="392" y="264" type="curve" smooth="yes"/>
      <point x="392" y="137"/>
      <point x="267" y="97"/>
      <point x="190" y="97" type="curve" smooth="yes"/>
      <point x="93" y="97"/>
      <point x="23" y="132"/>
      <point x="-17" y="179" type="curve"/>
      <point x="23" y="294" type="line"/>
      <point x="63" y="256"/>
      <point x="122" y="222"/>
      <point x="170" y="222" type="curve" smooth="yes"/>
      <point x="218" y="222"/>
      <point x="247" y="231"/>
      <point x="247" y="272" type="curve" smooth="yes"/>
      <point x="247" y="310"/>
      <point x="218" y="321"/>
      <point x="170" y="321" type="curve" smooth="yes"/>
    </contour>
  </outline>
</glyph>
<glyph name="six" format="1">
  <advance width="474"/>
  <unicode hex="0036"/>
  <outline>
    <contour>
      <point x="138" y="274" type="curve" smooth="yes"/>
      <point x="138" y="246"/>
      <point x="157" y="217"/>
      <point x="205" y="217" type="curve" smooth="yes"/>
      <point x="253" y="217"/>
      <point x="272" y="246"/>
      <point x="272" y="274" type="curve" smooth="yes"/>
      <point x="272" y="302"/>
      <point x="253" y="331"/>
      <point x="205" y="331" type="curve" smooth="yes"/>
      <point x="157" y="331"/>
      <point x="138" y="302"/>
    </contour>
    <contour>
      <point x="402" y="274" type="curve" smooth="yes"/>
      <point x="402" y="167"/>
      <point x="327" y="102"/>
      <point x="210" y="102" type="curve" smooth="yes"/>
      <point x="53" y="102"/>
      <point x="-2" y="227"/>
      <point x="-2" y="344" type="curve" smooth="yes"/>
      <point x="-2" y="471"/>
      <point x="74" y="622"/>
      <point x="211" y="622" type="curve" smooth="yes"/>
      <point x="288" y="622"/>
      <point x="358" y="587"/>
      <point x="398" y="540" type="curve"/>
      <point x="357" y="434" type="line"/>
      <point x="317" y="472"/>
      <point x="280" y="502"/>
      <point x="232" y="502" type="curve" smooth="yes"/>
      <point x="164" y="502"/>
      <point x="135" y="443"/>
      <point x="129" y="375" type="curve"/>
      <point x="159" y="412"/>
      <point x="205" y="426"/>
      <point x="240" y="426" type="curve" smooth="yes"/>
      <point x="307" y="426"/>
      <point x="402" y="381"/>
    </contour>
  </outline>
</glyph>
<glyph name="seven" format="1">
  <advance width="455"/>
  <unicode hex="0037"/>
  <outline>
    <contour>
      <point x="398" y="612" type="line"/>
      <point x="397" y="472"/>
      <point x="220" y="419"/>
      <point x="220" y="109" type="curve"/>
      <point x="85" y="111" type="line"/>
      <point x="85" y="330"/>
      <point x="172" y="410"/>
      <point x="231" y="492" type="curve"/>
      <point x="-12" y="492" type="line"/>
      <point x="-12" y="612" type="line"/>
    </contour>
  </outline>
</glyph>
<glyph name="equal" format="1">
  <advance width="560"/>
  <unicode hex="003D"/>
  <outline>
    <contour>
      <point x="48" y="222" type="line"/>
      <point x="48" y="332" type="line"/>
      <point x="438" y="332" type="line"/>
      <point x="438" y="222" type="line"/>
    </contour>
    <contour>
      <point x="48" y="402" type="line"/>
      <point x="48" y="512" type="line"/>
      <point x="438" y="512" type="line"/>
      <point x="438" y="402" type="line"/>
    </contour>
  </outline>
</glyph>
<glyph name="A" format="1">
  <advance width="580"/>
  <unicode hex="0041"/>
  <outline>
    <contour>
      <point x="-27" y="112" type="line"/>
      <point x="173" y="612" type="line"/>
      <point x="333" y="612" type="line"/>
      <point x="533" y="112" type="line"/>
      <point x="383" y="112" type="line"/>
      <point x="352" y="197" type="line"/>
      <point x="154" y="197" type="line"/>
      <point x="123" y="112" type="line"/>
    </contour>
    <contour>
      <point x="253" y="473" type="line"/>
      <point x="195" y="312" type="line"/>
      <point x="311" y="312" type="line"/>
    </contour>
  </outline>
</glyph>
<glyph name="B" format="1">
  <advance width="502"/>
  <unicode hex="0042"/>
  <outline>
    <contour>
      <point x="8" y="112" type="curve"/>
      <point x="8" y="612" type="line"/>
      <point x="81" y="612"/>
      <point x="155" y="612"/>
      <point x="228" y="612" type="curve" smooth="yes"/>
      <point x="345" y="612"/>
      <point x="420" y="557"/>
      <point x="420" y="470" type="curve" smooth="yes"/>
      <point x="420" y="416"/>
      <point x="397" y="386"/>
      <point x="357" y="370" type="curve"/>
      <point x="410" y="349"/>
      <point x="440" y="311"/>
      <point x="440" y="255" type="curve" smooth="yes"/>
      <point x="440" y="158"/>
      <point x="365" y="112"/>
      <point x="248" y="112" type="curve" smooth="yes"/>
      <point x="168" y="112"/>
      <point x="88" y="112"/>
    </contour>
    <contour>
      <point x="228" y="507" type="curve" smooth="yes"/>
      <point x="148" y="507" type="line"/>
      <point x="148" y="417" type="line"/>
      <point x="228" y="417" type="line" smooth="yes"/>
      <point x="256" y="417"/>
      <point x="275" y="432"/>
      <point x="275" y="460" type="curve" smooth="yes"/>
      <point x="275" y="488"/>
      <point x="256" y="507"/>
    </contour>
    <contour>
      <point x="148" y="322" type="line"/>
      <point x="148" y="222" type="line"/>
      <point x="238" y="222" type="line" smooth="yes"/>
      <point x="276" y="222"/>
      <point x="295" y="245"/>
      <point x="295" y="273" type="curve" smooth="yes"/>
      <point x="295" y="301"/>
      <point x="276" y="322"/>
      <point x="238" y="322" type="curve" smooth="yes"/>
    </contour>
  </outline>
</glyph>
<glyph name="E" format="1">
  <advance width="455"/>
  <unicode hex="0045"/>
  <outline>
    <contour>
      <point x="8" y="112" type="curve"/>
      <point x="8" y="612" type="line"/>
      <point x="135" y="612"/>
      <point x="261" y="612"/>
      <point x="388" y="612" type="curve"/>
      <point x="388" y="497" type="line"/>
      <point x="148" y="497" type="line"/>
      <point x="148" y="422" type="line"/>
      <point x="358" y="422" type="line"/>
      <point x="358" y="307" type="line"/>
      <point x="148" y="307" type="line"/>
      <point x="148" y="232" type="line"/>
      <point x="388" y="232" type="line"/>
      <point x="388" y="112" type="line"/>
      <point x="261" y="112"/>
      <point x="135" y="112"/>
    </contour>
  </outline>
</glyph>
<glyph name="G" format="1">
  <advance width="555"/>
  <unicode hex="0047"/>
  <outline>
    <contour>
      <point x="138" y="362" type="curve" smooth="yes"/>
      <point x="138" y="269"/>
      <point x="211" y="217"/>
      <point x="268" y="217" type="curve" smooth="yes"/>
      <point x="302" y="217"/>
      <point x="330" y="224"/>
      <point x="353" y="236" type="curve"/>
      <point x="353" y="307" type="line"/>
      <point x="243" y="307" type="line"/>
      <point x="243" y="402" type="line"/>
      <point x="483" y="402" type="line"/>
      <point x="483" y="186" type="line"/>
      <point x="431" y="134"/>
      <point x="349" y="92"/>
      <point x="268" y="92" type="curve" smooth="yes"/>
      <point x="113" y="92"/>
      <point x="-7" y="213"/>
      <point x="-7" y="362" type="curve" smooth="yes"/>
      <point x="-7" y="511"/>
      <point x="103" y="632"/>
      <point x="278" y="632" type="curve" smooth="yes"/>
      <point x="359" y="632"/>
      <point x="406" y="610"/>
      <point x="438" y="578" type="curve"/>
      <point x="398" y="451" type="line"/>
      <point x="373" y="484"/>
      <point x="329" y="507"/>
      <point x="268" y="507" type="curve" smooth="yes"/>
      <point x="211" y="507"/>
      <point x="138" y="455"/>
    </contour>
  </outline>
</glyph>
<glyph name="J" format="1">
  <advance width="319"/>
  <unicode hex="004A"/>
  <outline>
    <contour>
      <point x="97" y="122" type="curve" smooth="yes"/>
      <point x="97" y="612" type="line"/>
      <point x="237" y="612" type="line"/>
      <point x="237" y="82" type="line" smooth="yes"/>
      <point x="237" y="-15"/>
      <point x="147" y="-70"/>
      <point x="70" y="-70" type="curve" smooth="yes"/>
      <point x="3" y="-70"/>
      <point x="-37" y="-50"/>
      <point x="-87" y="-3" type="curve"/>
      <point x="-37" y="102" type="line"/>
      <point x="3" y="64"/>
      <point x="32" y="50"/>
      <point x="50" y="50" type="curve" smooth="yes"/>
      <point x="78" y="50"/>
      <point x="97" y="64"/>
    </contour>
  </outline>
</glyph>
<glyph name="N" format="1">
  <advance width="590"/>
  <unicode hex="004E"/>
  <outline>
    <contour>
      <point x="8" y="112" type="line"/>
      <point x="8" y="612" type="line"/>
      <point x="178" y="612" type="line"/>
      <point x="368" y="295" type="line"/>
      <point x="368" y="612" type="line"/>
      <point x="508" y="612" type="line"/>
      <point x="508" y="112" type="line"/>
      <point x="338" y="112" type="line"/>
      <point x="148" y="429" type="line"/>
      <point x="148" y="112" type="line"/>
    </contour>
  </outline>
</glyph>
<glyph name="O" format="1">
  <advance width="610"/>
  <unicode hex="004F"/>
  <outline>
    <contour>
      <point x="-7" y="362" type="curve" smooth="yes"/>
      <point x="-7" y="511"/>
      <point x="93" y="632"/>
      <point x="268" y="632" type="curve" smooth="yes"/>
      <point x="443" y="632"/>
      <point x="543" y="511"/>
      <point x="543" y="362" type="curve" smooth="yes"/>
      <point x="543" y="213"/>
      <point x="443" y="92"/>
      <point x="268" y="92" type="curve" smooth="yes"/>
      <point x="93" y="92"/>
      <point x="-7" y="213"/>
    </contour>
    <contour>
      <point x="138" y="362" type="curve" smooth="yes"/>
      <point x="138" y="269"/>
      <point x="206" y="217"/>
      <point x="268" y="217" type="curve" smooth="yes"/>
      <point x="330" y="217"/>
      <point x="398" y="269"/>
      <point x="398" y="362" type="curve" smooth="yes"/>
      <point x="398" y="455"/>
      <point x="330" y="507"/>
      <point x="268" y="507" type="curve" smooth="yes"/>
      <point x="206" y="507"/>
      <point x="138" y="455"/>
    </contour>
  </outline>
</glyph>
<glyph name="T" format="1">
  <advance width="480"/>
  <unicode hex="0054"/>
  <outline>
    <contour>
      <point x="-17" y="492" type="line"/>
      <point x="-17" y="612" type="line"/>
      <point x="423" y="612" type="line"/>
      <point x="423" y="492" type="line"/>
      <point x="273" y="492" type="line"/>
      <point x="273" y="112" type="line"/>
      <point x="133" y="112" type="line"/>
      <point x="133" y="492" type="line"/>
    </contour>
  </outline>
</glyph>
<glyph name="W" format="1">
  <advance width="880"/>
  <unicode hex="0057"/>
  <outline>
    <contour>
      <point x="823" y="612" type="line"/>
      <point x="633" y="112" type="line"/>
      <point x="473" y="112" type="line"/>
      <point x="405" y="307" type="line"/>
      <point x="333" y="112" type="line"/>
      <point x="173" y="112" type="line"/>
      <point x="-17" y="612" type="line"/>
      <point x="133" y="612" type="line"/>
      <point x="257" y="247" type="line"/>
      <point x="344" y="465" type="line"/>
      <point x="283" y="612" type="line"/>
      <point x="443" y="612" type="line"/>
      <point x="555" y="264" type="line"/>
      <point x="673" y="612" type="line"/>
    </contour>
  </outline>
</glyph>
<glyph name="e" format="1">
  <advance width="469"/>
  <unicode hex="0065"/>
  <outline>
    <contour>
      <point x="3" y="304" type="curve" smooth="yes"/>
      <point x="3" y="431"/>
      <point x="88" y="507"/>
      <point x="205" y="507" type="curve" smooth="yes"/>
      <point x="322" y="507"/>
      <point x="397" y="431"/>
      <point x="397" y="324" type="curve"/>
      <point x="155" y="235" type="line"/>
      <point x="171" y="215"/>
      <point x="194" y="202"/>
      <point x="225" y="202" type="curve" smooth="yes"/>
      <point x="268" y="202"/>
      <point x="295" y="226"/>
      <point x="317" y="260" type="curve"/>
      <point x="377" y="167" type="line"/>
      <point x="341" y="123"/>
      <point x="283" y="102"/>
      <point x="215" y="102" type="curve" smooth="yes"/>
      <point x="98" y="102"/>
      <point x="3" y="177"/>
    </contour>
    <contour>
      <point x="281" y="378" type="line"/>
      <point x="266" y="398"/>
      <point x="242" y="411"/>
      <point x="208" y="411" type="curve" smooth="yes"/>
      <point x="153" y="411"/>
      <point x="131" y="365"/>
      <point x="128" y="320" type="curve"/>
    </contour>
  </outline>
</glyph>
<glyph name="h" format="1">
  <advance width="474"/>
  <unicode hex="0068"/>
  <outline>
    <contour>
      <point x="3" y="112" type="line"/>
      <point x="3" y="642" type="line"/>
      <point x="138" y="642" type="line"/>
      <point x="138" y="425" type="line"/>
      <point x="171" y="475"/>
      <point x="220" y="507"/>
      <point x="265" y="507" type="curve" smooth="yes"/>
      <point x="352" y="507"/>
      <point x="397" y="451"/>
      <point x="397" y="354" type="curve" smooth="yes"/>
      <point x="397" y="112" type="line"/>
      <point x="262" y="112" type="line"/>
      <point x="262" y="324" type="line" smooth="yes"/>
      <point x="262" y="382"/>
      <point x="243" y="402"/>
      <point x="215" y="402" type="curve" smooth="yes"/>
      <point x="186" y="402"/>
      <point x="157" y="380"/>
      <point x="138" y="352" type="curve"/>
      <point x="138" y="112" type="line"/>
    </contour>
  </outline>
</glyph>
<glyph name="j" format="1">
  <advance width="277"/>
  <unicode hex="006A"/>
  <outline>
    <contour>
      <point x="37" y="497" type="line"/>
      <point x="172" y="497" type="line"/>
      <point x="172" y="16" type="line" smooth="yes"/>
      <point x="172" y="-81"/>
      <point x="87" y="-136"/>
      <point x="10" y="-136" type="curve" smooth="yes"/>
      <point x="-57" y="-136"/>
      <point x="-87" y="-121"/>
      <point x="-137" y="-74" type="curve"/>
      <point x="-97" y="26" type="line"/>
      <point x="-57" y="-12"/>
      <point x="-28" y="-26"/>
      <point x="-10" y="-26" type="curve" smooth="yes"/>
      <point x="18" y="-26"/>
      <point x="37" y="-12"/>
      <point x="37" y="46" type="curve" smooth="yes"/>
    </contour>
    <contour>
      <point x="104" y="554" type="line"/>
      <point x="9" y="649" type="line"/>
      <point x="104" y="745" type="line"/>
      <point x="200" y="649" type="line"/>
    </contour>
  </outline>
</glyph>
<glyph name="l" format="1">
  <advance width="215"/>
  <unicode hex="006C"/>
  <outline>
    <contour>
      <point x="3" y="112" type="line"/>
      <point x="3" y="642" type="line"/>
      <point x="138" y="642" type="line"/>
      <point x="138" y="112" type="line"/>
    </contour>
  </outline>
</glyph>
<glyph name="m" format="1">
  <advance width="693"/>
  <unicode hex="006D"/>
  <outline>
    <contour>
      <point x="3" y="112" type="line"/>
      <point x="3" y="497" type="line"/>
      <point x="138" y="497" type="line"/>
      <point x="138" y="431" type="line"/>
      <point x="168" y="478"/>
      <point x="212" y="507"/>
      <point x="255" y="507" type="curve" smooth="yes"/>
      <point x="315" y="507"/>
      <point x="350" y="480"/>
      <point x="366" y="432" type="curve"/>
      <point x="402" y="478"/>
      <point x="452" y="507"/>
      <point x="494" y="507" type="curve" smooth="yes"/>
      <point x="581" y="507"/>
      <point x="616" y="451"/>
      <point x="616" y="354" type="curve" smooth="yes"/>
      <point x="616" y="112" type="line"/>
      <point x="481" y="112" type="line"/>
      <point x="481" y="324" type="line" smooth="yes"/>
      <point x="481" y="382"/>
      <point x="472" y="402"/>
      <point x="444" y="402" type="curve" smooth="yes"/>
      <point x="417" y="402"/>
      <point x="393" y="383"/>
      <point x="377" y="358" type="curve"/>
      <point x="377" y="276"/>
      <point x="377" y="194"/>
      <point x="377" y="112" type="curve"/>
      <point x="242" y="112" type="line"/>
      <point x="242" y="324" type="line" smooth="yes"/>
      <point x="242" y="382"/>
      <point x="233" y="402"/>
      <point x="205" y="402" type="curve" smooth="yes"/>
      <point x="178" y="402"/>
      <point x="154" y="383"/>
      <point x="138" y="358" type="curve"/>
      <point x="138" y="112" type="line"/>
    </contour>
  </outline>
</glyph>
<glyph name="s" format="1">
  <advance width="374"/>
  <unicode hex="0073"/>
  <outline>
    <contour>
      <point x="177" y="224" type="curve" smooth="yes"/>
      <point x="177" y="274"/>
      <point x="9" y="270"/>
      <point x="9" y="390" type="curve" smooth="yes"/>
      <point x="9" y="487"/>
      <point x="84" y="512"/>
      <point x="161" y="512" type="curve" smooth="yes"/>
      <point x="198" y="512"/>
      <point x="248" y="497"/>
      <point x="298" y="450" type="curve"/>
      <point x="258" y="360" type="line"/>
      <point x="218" y="398"/>
      <point x="190" y="412"/>
      <point x="172" y="412" type="curve" smooth="yes"/>
      <point x="154" y="412"/>
      <point x="144" y="403"/>
      <point x="144" y="390" type="curve" smooth="yes"/>
      <point x="144" y="340"/>
      <point x="312" y="338"/>
      <point x="312" y="234" type="curve" smooth="yes"/>
      <point x="312" y="137"/>
      <point x="227" y="97"/>
      <point x="150" y="97" type="curve" smooth="yes"/>
      <point x="83" y="97"/>
      <point x="33" y="112"/>
      <point x="-17" y="159" type="curve"/>
      <point x="23" y="249" type="line"/>
      <point x="63" y="211"/>
      <point x="112" y="197"/>
      <point x="130" y="197" type="curve" smooth="yes"/>
      <point x="158" y="197"/>
      <point x="177" y="203"/>
    </contour>
  </outline>
</glyph>
<glyph name="u" format="1">
  <advance width="474"/>
  <unicode hex="0075"/>
  <outline>
    <contour>
      <point x="397" y="497" type="line"/>
      <point x="397" y="112" type="line"/>
      <point x="262" y="112" type="line"/>
      <point x="262" y="184" type="line"/>
      <point x="229" y="134"/>
      <point x="180" y="102"/>
      <point x="135" y="102" type="curve" smooth="yes"/>
      <point x="48" y="102"/>
      <point x="3" y="158"/>
      <point x="3" y="255" type="curve" smooth="yes"/>
      <point x="3" y="497" type="line"/>
      <point x="138" y="497" type="line"/>
      <point x="138" y="285" type="line" smooth="yes"/>
      <point x="138" y="227"/>
      <point x="157" y="207"/>
      <point x="185" y="207" type="curve" smooth="yes"/>
      <point x="214" y="207"/>
      <point x="243" y="229"/>
      <point x="262" y="257" type="curve"/>
      <point x="262" y="497" type="line"/>
    </contour>
  </outline>
</glyph>
<glyph name="v" format="1">
  <advance width="465"/>
  <unicode hex="0076"/>
  <outline>
    <contour>
      <point x="123" y="112" type="line"/>
      <point x="-27" y="497" type="line"/>
      <point x="118" y="497" type="line"/>
      <point x="199" y="213" type="line"/>
      <point x="273" y="497" type="line"/>
      <point x="418" y="497" type="line"/>
      <point x="278" y="112" type="line"/>
    </contour>
  </outline>
</glyph>
<glyph name="w" format="1">
  <advance width="695"/>
  <unicode hex="0077"/>
  <outline>
    <contour>
      <point x="98" y="112" type="line"/>
      <point x="-22" y="497" type="line"/>
      <point x="123" y="497" type="line"/>
      <point x="176" y="240" type="line"/>
      <point x="253" y="497" type="line"/>
      <point x="368" y="497" type="line"/>
      <point x="451" y="240" type="line"/>
      <point x="498" y="497" type="line"/>
      <point x="643" y="497" type="line"/>
      <point x="533" y="112" type="line"/>
      <point x="388" y="112" type="line"/>
      <point x="312" y="319" type="line"/>
      <point x="243" y="112" type="line"/>
    </contour>
  </outline>
</glyph>
<glyph name="x" format="1">
  <advance width="465"/>
  <unicode hex="0078"/>
  <outline>
    <contour>
      <point x="195" y="410" type="line"/>
      <point x="263" y="497" type="line"/>
      <point x="418" y="497" type="line"/>
      <point x="273" y="311" type="line"/>
      <point x="428" y="112" type="line"/>
      <point x="273" y="112" type="line"/>
      <point x="195" y="211" type="line"/>
      <point x="118" y="112" type="line"/>
      <point x="-37" y="112" type="line"/>
      <point x="118" y="311" type="line"/>
      <point x="-27" y="497" type="line"/>
      <point x="128" y="497" type="line"/>
    </contour>
  </outline>
</glyph>
